<?xml version="1.0" encoding="UTF-8"?>
<!DOCTYPE svg PUBLIC "-//W3C//DTD SVG 1.1//EN" "http://www.w3.org/Graphics/SVG/1.1/DTD/svg11.dtd">
<!-- Creator: CorelDRAW -->
<svg xmlns="http://www.w3.org/2000/svg" xml:space="preserve" width="105.96mm" height="88.8314mm" version="1.1" style="shape-rendering:geometricPrecision; text-rendering:geometricPrecision; image-rendering:optimizeQuality; fill-rule:evenodd; clip-rule:evenodd"
viewBox="0 0 451.11 378.19"
 xmlns:xlink="http://www.w3.org/1999/xlink"
 xmlns:xodm="http://www.corel.com/coreldraw/odm/2003">
 <defs>
  <style type="text/css">
   <![CDATA[
    .fil0 {fill:#CD8C5F}
   ]]>
  </style>
 </defs>
 <g id="Layer_x0020_1">
  <metadata id="CorelCorpID_0Corel-Layer"/>
  <path class="fil0" d="M0.69 211.4l369.79 -0.34 -0.05 -78.21 -370.43 0.72 0.69 77.83zm193.37 65.94c7.56,-3.22 43.6,-1.51 52.82,-1.48l0.29 12.12 -53.48 -0.11 0.38 -10.53zm-158.62 43.21c14.05,0.9 352.17,2.98 370.36,-0.64l-0.42 -77.24 -370.01 0.17 0.08 77.71zm204.41 -264.04c15.21,-0.39 40.33,-3.79 52.92,1.33l-0.07 10.7 -53.33 -0.34 0.47 -11.69zm-158.95 44.1l34.35 1.04 313 -0.04 22.86 -0.15 -0.02 -78.08 -39.1 -0.16 -107.72 0.02 -189.02 -0 -34.3 0.14 -0.05 77.23zm-54.76 -86.85l347.24 -0c8.12,0 16.27,-0.05 24.39,0.01 3.55,0.03 9.02,0.37 12.29,0.19l11.42 -2.87 -0.47 -8.13c-15.23,-6.1 -356.77,-0.74 -407.69,-1.66l-0.12 122.07 401.97 0.6 0.01 96.79 -401.85 0.11 -0.05 121.85 47.76 0.03 0.89 34.96 11.5 -0.23 0.87 -34.72 292.46 0.12 0.69 29.85c1.87,6.08 -1.54,2.35 3.92,5.09 10.05,2.39 8.44,-7.77 8.24,-17.11 -0.13,-6.23 -0.19,-11.66 0.34,-17.84l41.57 -0.98 -0.32 -11.28 -395.71 -0.05 0.7 -97.34 401.32 -0.94 -0.29 -121.08 -401.75 -0.04 0.69 -97.41z"/>
 </g>
</svg>
