<?xml version="1.0" encoding="UTF-8"?>
<!DOCTYPE svg PUBLIC "-//W3C//DTD SVG 1.1//EN" "http://www.w3.org/Graphics/SVG/1.1/DTD/svg11.dtd">
<!-- Creator: CorelDRAW -->
<svg xmlns="http://www.w3.org/2000/svg" xml:space="preserve" width="95.836mm" height="134.283mm" version="1.1" style="shape-rendering:geometricPrecision; text-rendering:geometricPrecision; image-rendering:optimizeQuality; fill-rule:evenodd; clip-rule:evenodd"
viewBox="0 0 237.85 333.28"
 xmlns:xlink="http://www.w3.org/1999/xlink"
 xmlns:xodm="http://www.corel.com/coreldraw/odm/2003">
 <defs>
  <style type="text/css">
   <![CDATA[
    .fil0 {fill:#CD8C5F}
   ]]>
  </style>
 </defs>
 <g id="Layer_x0020_1">
  <metadata id="CorelCorpID_0Corel-Layer"/>
  <path class="fil0" d="M163.49 23.13l-0.58 286.8 -143.24 -33.18c-2.84,-15.05 -2.8,-205.74 -0.05,-221.17l143.87 -32.45zm-163.44 17.68l-0.05 250.95 181.37 41.52 0.72 -333.28 -182.04 40.8zm93.73 229.32l0.1 -61.7 49.16 0.14 0.33 75.7 -39.24 -8.16c-13.79,-3.64 -6.74,-3.01 -10.36,-5.98zm-55.09 -61.65l44.97 0.06 0.45 62.33 -45.11 -9.85 -0.32 -52.54zm55.35 -74.19l49.25 -0.04 -0.76 64.44 -48.63 -1 0.14 -63.41zm-55 0.04l44.93 -0.17 -0.86 64.47 -44.4 -0.72 0.33 -63.58zm104.33 -85.85l-0.34 75.77 -49.15 0.09 0.05 -64.94 49.45 -10.92zm-59.28 13.4l-0.48 62.35 -44.9 0.05 0.28 -52.55 45.11 -9.85zm-54.87 207.49l124.37 27.25 -0.21 -261.43 -124.89 28.29 0.73 205.89zm161.78 -235.39l28.06 0.84 0.07 263.06 -27.42 0.26 -0.65 17.88 46.43 -0.12 0.38 -298.87 -46.39 -0.24 -0.47 17.19z"/>
 </g>
</svg>
