<?xml version="1.0" encoding="UTF-8"?>
<!DOCTYPE svg PUBLIC "-//W3C//DTD SVG 1.1//EN" "http://www.w3.org/Graphics/SVG/1.1/DTD/svg11.dtd">
<!-- Creator: CorelDRAW -->
<svg xmlns="http://www.w3.org/2000/svg" xml:space="preserve" width="702.34mm" height="806.409mm" version="1.1" style="shape-rendering:geometricPrecision; text-rendering:geometricPrecision; image-rendering:optimizeQuality; fill-rule:evenodd; clip-rule:evenodd"
viewBox="0 0 14130.91 16224.76"
 xmlns:xlink="http://www.w3.org/1999/xlink"
 xmlns:xodm="http://www.corel.com/coreldraw/odm/2003">
 <defs>
  <style type="text/css">
   <![CDATA[
    .fil0 {fill:#F1F0F0;fill-rule:nonzero}
   ]]>
  </style>
 </defs>
 <g id="Layer_x0020_1">
  <metadata id="CorelCorpID_0Corel-Layer"/>
  <path class="fil0" d="M2600.84 1000.85l0 2952.47 -693.49 -2952.47 -852.73 0 0 6741.5 844.81 0 0 -3092.39 720.73 3092.39 820.58 0 0 -6741.5 -839.9 0zm2367.38 5898.46c-91.65,0 -136.64,-46.7 -136.64,-136.77l0 -4775.38c0,-94.93 44.99,-141.5 136.64,-141.5l281.6 0c94.98,0 141.64,46.57 141.64,141.5l0 4775.38c0,90.07 -46.66,136.77 -141.64,136.77l-281.6 0zm-278.27 -5898.46c-194.73,0 -360.46,69.31 -495.61,207.65 -138.35,138.35 -207.56,304.07 -207.56,495.47l0 5335.25c0,196.31 69.22,360.41 207.56,495.61 135.15,138.35 300.88,207.52 495.61,207.52l843.05 0c191.53,0 357.26,-69.17 495.61,-207.52 138.35,-135.19 207.52,-299.3 207.52,-495.61l0 -5335.25c0,-191.4 -69.17,-357.12 -207.52,-495.47 -138.35,-138.35 -304.07,-207.65 -495.61,-207.65l-843.05 0zm3496.93 2669.29c0,93.36 -46.7,141.64 -141.68,141.64l-418.24 0 0 -1966.12 418.24 0c94.98,0 141.68,46.57 141.68,141.5l0 1682.99zm-559.92 3229.16l0 -2244.44 418.24 0c94.98,0 141.68,46.57 141.68,141.5l0 1966.17c0,90.07 -46.7,136.77 -141.68,136.77l-418.24 0zm-844.76 -5898.46l0 6741.5 1546.17 0c191.53,0 357.26,-69.17 495.6,-207.52 138.35,-135.19 207.52,-299.3 207.52,-495.61l0 -2242.86c0,-207.52 -59.49,-395.72 -180.14,-566.36 120.65,-165.73 180.14,-352.35 180.14,-559.87l0 -1966.17c0,-191.4 -69.17,-357.12 -207.52,-495.47 -138.35,-138.35 -304.07,-207.65 -495.6,-207.65l-1546.17 0zm2795.39 6741.5l844.8 0 0 -6741.5 -844.8 0 0 6741.5zm1390.85 -6741.5l0 6741.5 2107.8 0 0 -843.05 -1262.99 0 0 -5898.46 -844.81 0zm-6557.67 7481.56l-384.5 4626.72 -471.65 -4626.72 -852.1 0 -469.35 4623.93 -389.86 -4623.93 -722.31 0 551.45 6619.28 1076.15 0 380.45 -3691.04 374.73 3691.04 1077.72 0 549.74 -6619.28 -720.46 0zm-397.07 3302.48l284.75 -3424.7 965.54 0 -570.05 6863.73 -1300.15 0 -265.7 -2615.88 -269.53 2615.88 -1298.44 0c-194.32,-2287.44 -381.58,-4575.92 -571.85,-6863.73l967.34 0 288.94 3427.54 347.94 -3427.54 1072.23 0 348.97 3424.7zm2543.51 2595.93c-62.6,0 -111.24,-17.7 -145.69,-52.15 -34.72,-34.72 -52.11,-83.72 -52.11,-145.69l0 -4775.38c0,-63.68 17.02,-113.17 51.25,-148.61 34.59,-36.07 83.45,-54.04 146.54,-54.04l281.56 0c64.31,0 114.3,17.61 149.74,53.05 35.31,35.35 53.05,85.07 53.05,149.61l0 4775.38c0,62.19 -18.1,111.46 -54.4,146.27 -35.31,34.09 -84.8,51.56 -148.39,51.56l-281.56 0zm-59.18 -138.71c10.9,10.9 30.67,16.48 59.18,16.48l281.56 0c30.94,0 52.06,-5.72 63.59,-16.84 11.35,-10.9 16.98,-30.67 16.98,-58.77l0 -4775.38c0,-30.44 -5.85,-51.56 -17.38,-63.05 -11.48,-11.48 -32.74,-17.38 -63.18,-17.38l-281.56 0c-28.64,0 -48.41,5.49 -58.82,16.39 -11.26,11.62 -16.75,33.01 -16.75,64.04l0 4775.38c0,28.33 5.49,48.28 16.39,59.13zm-219.14 -5759.7c-89.21,0 -171.72,15.9 -246.65,47.06 -75.03,31.66 -143.84,79.08 -205.31,142 -64.04,64.4 -111.6,133.84 -142.89,208.51 -31.25,74.94 -47.15,156.68 -47.15,244.45l0 5335.25c0,179.15 63.18,329.02 188.97,451.97l1.08 1.08c61.61,63.09 130.28,110.51 204.95,141.77 75.07,31.3 157.67,47.2 247.01,47.2l843.05 0c174.55,0 325.96,-63.32 452.37,-189.69 63.9,-62.1 111.19,-130.28 142.49,-204.95 31.3,-74.8 47.2,-157.31 47.2,-247.37l0 -5335.25c0,-174.42 -63.32,-325.83 -189.69,-452.19 -63.59,-63.59 -132.99,-111.24 -208.01,-142.67 -74.94,-31.25 -156.72,-47.15 -244.36,-47.15l-843.05 0zm-293.72 -65.53c90.34,-37.65 188.38,-56.7 293.72,-56.7l843.05 0c103.8,0 201.08,19.05 291.28,56.7 90.3,37.78 173.07,94.26 247.6,168.79 150.1,150.1 225.35,330.46 225.35,538.75l0 5335.25c0,106.1 -19.05,204.1 -56.7,294.03 -37.65,89.84 -94.08,171.49 -168.79,244.72 -149.96,150.19 -330.33,225.49 -538.75,225.49l-843.05 0c-105.34,0 -203.51,-19.05 -293.72,-56.7 -89.71,-37.56 -171.81,-94.12 -245.03,-168.92 -150.32,-147.04 -225.49,-325.6 -225.49,-538.61l0 -5335.25c0,-103.76 19.05,-201.03 56.7,-291.15 37.92,-90.43 94.26,-173.16 168.65,-247.6 73.45,-74.67 155.46,-131.14 245.17,-168.79zm3197.77 5963.94c-62.6,0 -111.23,-17.7 -145.69,-52.15 -34.72,-34.72 -52.06,-83.72 -52.06,-145.69l0 -4775.38c0,-63.68 16.98,-113.17 51.2,-148.61 34.59,-36.07 83.5,-54.04 146.54,-54.04l281.6 0c64.26,0 114.25,17.61 149.7,53.05 35.35,35.35 53.05,85.07 53.05,149.61l0 4775.38c0,62.19 -18.1,111.46 -54.4,146.27 -35.31,34.09 -84.8,51.56 -148.34,51.56l-281.6 0zm-59.17 -138.71c10.9,10.9 30.71,16.48 59.17,16.48l281.6 0c30.89,0 52.06,-5.72 63.54,-16.84 11.35,-10.9 16.98,-30.67 16.98,-58.77l0 -4775.38c0,-30.44 -5.85,-51.56 -17.34,-63.05 -11.48,-11.48 -32.74,-17.38 -63.18,-17.38l-281.6 0c-28.6,0 -48.41,5.49 -58.77,16.39 -11.26,11.62 -16.75,33.01 -16.75,64.04l0 4775.38c0,28.33 5.49,48.28 16.35,59.13zm-219.14 -5759.7c-89.22,0 -171.72,15.9 -246.61,47.06 -75.07,31.66 -143.88,79.08 -205.36,142 -64.04,64.4 -111.55,133.84 -142.85,208.51 -31.3,74.94 -47.2,156.68 -47.2,244.45l0 5335.25c0,179.15 63.18,329.02 188.96,451.97l1.08 1.08c61.61,63.09 130.29,110.51 205,141.77 75.03,31.3 157.67,47.2 246.97,47.2l843.09 0c174.51,0 325.96,-63.32 452.33,-189.69 63.9,-62.1 111.24,-130.28 142.49,-204.95 31.3,-74.8 47.19,-157.31 47.19,-247.37l0 -5335.25c0,-174.42 -63.32,-325.83 -189.69,-452.19 -63.54,-63.59 -132.99,-111.24 -208.01,-142.67 -74.94,-31.25 -156.68,-47.15 -244.31,-47.15l-843.09 0zm-293.67 -65.53c90.3,-37.65 188.34,-56.7 293.67,-56.7l843.09 0c103.76,0 201.03,19.05 291.24,56.7 90.34,37.78 173.07,94.26 247.6,168.79 150.1,150.1 225.4,330.46 225.4,538.75l0 5335.25c0,106.1 -19.05,204.1 -56.7,294.03 -37.65,89.84 -94.12,171.49 -168.79,244.72 -149.96,150.19 -330.37,225.49 -538.75,225.49l-843.09 0c-105.34,0 -203.47,-19.05 -293.67,-56.7 -89.71,-37.56 -171.85,-94.12 -245.03,-168.92 -150.37,-147.04 -225.53,-325.6 -225.53,-538.61l0 -5335.25c0,-103.76 19.09,-201.03 56.74,-291.15 37.87,-90.43 94.21,-173.16 168.65,-247.6 73.45,-74.67 155.46,-131.14 245.17,-168.79zm2999.98 5902.82l0 -5114.76 479.35 0c64.31,0 114.3,17.61 149.74,53.05 35.31,35.35 53.05,85.07 53.05,149.61l0 4775.38c0,62.19 -18.1,111.46 -54.4,146.27 -35.31,34.09 -84.85,51.56 -148.39,51.56l-479.35 0 0 -61.11zm122.22 -4992.54l0 4931.43 357.12 0c30.94,0 52.06,-5.72 63.54,-16.84 11.39,-10.9 17.02,-30.67 17.02,-58.77l0 -4775.38c0,-30.44 -5.9,-51.56 -17.38,-63.05 -11.48,-11.48 -32.74,-17.38 -63.18,-17.38l-357.12 0zm-844.76 -844.76l0 6619.28 1485.06 0c174.56,0 325.96,-63.32 452.33,-189.69 63.95,-62.1 111.23,-130.28 142.53,-204.95 31.3,-74.8 47.15,-157.31 47.15,-247.37l0 -5335.25c0,-174.42 -63.27,-325.83 -189.69,-452.19 -63.54,-63.59 -132.94,-111.24 -208.02,-142.67 -74.89,-31.25 -156.67,-47.15 -244.31,-47.15l-1485.06 0zm-122.22 6680.39l0 -6802.62 1607.28 0c103.76,0 201.08,19.05 291.28,56.7 90.3,37.78 173.02,94.26 247.6,168.79 150.1,150.1 225.35,330.46 225.35,538.75l0 5335.25c0,106.1 -19.05,204.1 -56.7,294.03 -37.65,89.84 -94.12,171.49 -168.79,244.72 -149.96,150.19 -330.33,225.49 -538.75,225.49l-1607.28 0 0 -61.11zm1524.46 -8750.72l0 -78.76 530.33 0c81.51,0 138.21,6.35 170.14,18.96 31.7,12.74 57.24,33.73 76.24,63.45 19.14,29.54 28.6,65.48 28.6,107.41 0,31.75 -6.17,63.09 -18.42,93.94 -12.2,30.8 -33.73,65.07 -64.72,102.5l-62.37 -41.61c28.64,-41.21 48.86,-75.3 60.53,-102.5 7.83,-17.83 11.66,-35.35 11.66,-52.51 0,-22.43 -6.71,-42.83 -20.22,-61.25 -13.51,-18.42 -31.57,-31.39 -54,-38.68 -22.43,-7.3 -65.84,-10.94 -130.2,-10.94l-527.58 0zm0 -272.46l0 -78.76 474.53 0c56.16,0 91.33,-1.08 105.2,-3.29 31.03,-3.83 56.92,-12.97 77.68,-27.16 20.81,-14.23 38.32,-36.12 52.33,-65.66 14.05,-29.54 21.17,-59.27 21.17,-89.35 0,-25.89 -5.45,-50.89 -16.57,-74.8 -10.94,-23.69 -26.26,-43.77 -45.98,-59.81 -19.5,-16.03 -43.23,-27.74 -70.93,-35.22 -20.09,-5.27 -60.93,-8.02 -122.9,-8.02l-474.53 0 0 -78.76 474.12 0c70.25,0 126.95,6.94 170.19,20.58 43.19,13.69 80.97,41.25 112.86,82.28 32.11,41.21 48.14,91.02 48.14,149.51 0,63.5 -15.13,117.81 -45.4,163.07 -30.26,45.4 -70.21,75.66 -120.2,90.97 -30.62,9.68 -85.7,14.41 -165.59,14.41l-474.12 0zm638.64 -632.24l-40.12 -66.74c86.83,-47.06 130.24,-101.37 130.24,-163.02 0,-26.44 -6.21,-51.25 -18.42,-74.4 -12.25,-23.19 -28.82,-40.89 -49.45,-52.92 -20.58,-12.2 -42.47,-18.24 -65.66,-18.24 -26.26,0 -51.97,8.96 -77.32,26.84 -34.81,24.59 -76.96,69.44 -126.01,134.92 -49.58,65.66 -85.34,106.51 -107.41,122.54 -37.02,27.92 -77.14,41.79 -120.2,41.79 -34.09,0 -65.26,-8.19 -93.36,-24.63 -28.1,-16.39 -50.17,-39.59 -66.38,-69.49 -16.21,-29.9 -24.27,-62.19 -24.27,-97.18 0,-37.2 9.14,-72.05 27.56,-104.3 18.24,-32.29 51.97,-66.61 101.01,-102.68l48.73 64.17c-39.22,29.72 -65.12,55.08 -77.55,76.06 -12.56,20.94 -18.78,43.77 -18.78,68.36 0,31.93 9.68,58.01 28.82,78.27 19.32,20.22 42.87,30.44 71.16,30.44 16.93,0 33.55,-3.65 49.58,-10.76 16.03,-7.12 33.37,-20.27 52.33,-39.23 9.86,-10.22 36.12,-44.31 78.4,-101.91 50.35,-68.23 95.02,-115.11 134.07,-140.46 39.18,-25.31 78.59,-38.1 118.17,-38.1 56.88,0 106.51,21.71 148.43,64.94 42.15,43.41 63.09,96.1 63.09,158.12 0,47.78 -12.75,91.15 -38.28,130.02 -25.53,38.82 -68.41,74.76 -128.39,107.59zm-562.03 -548.21l-76.6 0 0 -429.99 76.6 0 0 175.05 709.02 0 0 79.89 -709.02 0 0 175.05zm-76.6 -846.52l0 -393.92 76.6 0 0 315.15 246.16 0 0 -315.15 76.6 0 0 315.15 386.26 0 0 78.76 -785.63 0zm0 -531.59l0 -449.72 76.6 0 0 370.91 246.16 0 0 -367.62 76.6 0 0 367.62 309.66 0 0 -367.62 76.6 0 0 446.43 -785.63 0zm0 -586.67l0 -449.72 76.6 0 0 370.91 246.16 0 0 -367.62 76.6 0 0 367.62 309.66 0 0 -367.62 76.6 0 0 446.43 -785.63 0zm0 -585.58l0 -78.77 709.02 0 0 -303.08 76.6 0 0 381.85 -785.63 0zm0 -797.29l0 -78.76 785.63 0 0 78.76 -785.63 0zm76.6 -180.54l-76.6 0 0 -429.99 76.6 0 0 175.05 709.02 0 0 79.89 -709.02 0 0 175.05zm-12144.48 -1430.98l13685.29 0c61.11,0 117.09,25.04 157.44,65.39 40.08,40.44 65.39,96.28 65.39,157.39l0 15779.19c0,60.98 -25.22,116.95 -65.39,157.26 -40.49,40.35 -96.46,65.53 -157.44,65.53l-13685.29 0c-61.07,0 -116.95,-25.31 -157.26,-65.39 -40.49,-40.35 -65.53,-96.28 -65.53,-157.39l0 -15779.19c0,-61.34 25.04,-117.04 65.39,-157.39 40.35,-40.35 96.06,-65.39 157.39,-65.39zm13685.29 85.57l-13685.29 0c-37.87,0 -72.32,15.49 -97,40.22 -24.73,24.68 -40.22,59.13 -40.22,97l0 15779.19c0,37.74 15.49,72.32 40.22,97 24.68,24.73 59.13,40.22 97,40.22l13685.29 0c37.78,0 72.37,-15.49 97.05,-40.22 24.68,-24.68 40.22,-59.26 40.22,-97l0 -15779.19c0,-37.87 -15.54,-72.32 -40.22,-97 -24.68,-24.73 -59.26,-40.22 -97.05,-40.22z"/>
 </g>
</svg>
