<?xml version="1.0" encoding="UTF-8"?>
<!DOCTYPE svg PUBLIC "-//W3C//DTD SVG 1.1//EN" "http://www.w3.org/Graphics/SVG/1.1/DTD/svg11.dtd">
<!-- Creator: CorelDRAW -->
<svg xmlns="http://www.w3.org/2000/svg" xml:space="preserve" width="439.839mm" height="547.86mm" version="1.1" style="shape-rendering:geometricPrecision; text-rendering:geometricPrecision; image-rendering:optimizeQuality; fill-rule:evenodd; clip-rule:evenodd"
viewBox="0 0 6148.06 7657.97"
 xmlns:xlink="http://www.w3.org/1999/xlink"
 xmlns:xodm="http://www.corel.com/coreldraw/odm/2003">
 <defs>
  <style type="text/css">
   <![CDATA[
    .fil0 {fill:#CD8C5F}
   ]]>
  </style>
 </defs>
 <g id="Layer_x0020_1">
  <metadata id="CorelCorpID_0Corel-Layer"/>
  <path class="fil0" d="M1639.39 3004.87l-0.05 -933.57c155.43,-1 456.01,-24.13 580.03,42.78 214.78,115.88 245.29,472.4 153.35,675.92 -125.87,278.62 -413.03,211.98 -733.33,214.88zm-682.33 -352.09l0.08 350.81 -185.67 0 -1.51 -928.12c94.59,-14.72 347.46,-7.19 449.96,-0.22 311.4,21.19 336.95,390.93 143.12,526.42 -100.43,70.21 -274.21,47.58 -405.98,51.11zm1812.93 -201.54l389.91 0.42 1.42 155.69 -389.57 1.05 -2.98 392.99 -182.68 2.93 -4.3 -930.67 639.89 -2.02 -0.35 156.18 -451.83 0.15 0.5 223.29zm-2769.07 1032.8l3924.46 0.01 4.27 -1905.12 -3929.65 0.27 0.92 1904.84zm760.39 -2113.7l428.55 -0.43 -0.8 -939.99 3330.19 -2.06 0.26 1193.98 1190.04 1.86 5.23 3859.4 -1310.17 4.25 -3.9 467.45 1740.42 -0.85c14.99,-463.24 0.98,-950.41 0.98,-1415.71 0,-932.21 -9.6,-1904.67 0.46,-2831.39 1.24,-114.78 1.35,-79.49 -136.12,-218.15l-1415.31 -1415.71c-32.25,-32.09 -48.54,-66.79 -103.76,-72.82l-891.2 0.35c-943.63,0 -1891.76,9.15 -2834.81,-0.51l-0.07 1370.34zm3065.06 5920.63c119.16,-120.52 1063.4,-1051.13 1082.26,-1096.47l-724.18 0.97 1.09 -1462.7c-268.04,-11.73 -1286.37,-12.24 -1466.18,-0.86l-0.66 1462.09 -724.86 -0.47 1096.19 1099.89c64.81,63.57 317.81,334.99 373.84,364.55l362.51 -367zm-3065.07 -1336.64l1739.91 -0.38 1.16 -466.7 -1313.23 -0.03 -0.11 -1793.72 -424.85 0.39 -2.87 2260.43zm1066.93 -3108.39c293.95,18.5 396.84,0.28 398.21,-305.61 1.33,-295.78 -113.78,-332.24 -398.66,-309.97l0.44 615.58zm-870.65 -350.87c131.13,1.44 333.89,26.96 331.85,-137.12 -1.94,-156.78 -198.69,-132.19 -331.96,-129.48l0.11 266.59z"/>
 </g>
</svg>
