<?xml version="1.0" encoding="UTF-8"?>
<!DOCTYPE svg PUBLIC "-//W3C//DTD SVG 1.1//EN" "http://www.w3.org/Graphics/SVG/1.1/DTD/svg11.dtd">
<!-- Creator: CorelDRAW -->
<svg xmlns="http://www.w3.org/2000/svg" xml:space="preserve" width="90.7716mm" height="111.495mm" version="1.1" style="shape-rendering:geometricPrecision; text-rendering:geometricPrecision; image-rendering:optimizeQuality; fill-rule:evenodd; clip-rule:evenodd"
viewBox="0 0 280.3 344.29"
 xmlns:xlink="http://www.w3.org/1999/xlink"
 xmlns:xodm="http://www.corel.com/coreldraw/odm/2003">
 <defs>
  <style type="text/css">
   <![CDATA[
    .fil0 {fill:#CD8C5F;fill-rule:nonzero}
   ]]>
  </style>
 </defs>
 <g id="Layer_x0020_1">
  <metadata id="CorelCorpID_0Corel-Layer"/>
  <path class="fil0" d="M146.27 135.6l121.81 121.81 0 -48.72 -121.81 -121.81 0 48.72zm134.04 136.57l0 66.01c0,3.38 -2.74,6.11 -6.11,6.11 -1.71,0 -3.25,-0.7 -4.36,-1.83l-129.68 -129.68 -129.68 129.68c-1.11,1.13 -2.65,1.83 -4.36,1.83 -3.38,0 -6.11,-2.74 -6.11,-6.11l0 -198.03c0,-1.56 0.6,-3.13 1.79,-4.32l134 -134c1.11,-1.13 2.65,-1.83 4.36,-1.83 1.71,0 3.25,0.7 4.36,1.83l134 134c1.19,1.19 1.79,2.76 1.79,4.32l0 132.02zm-146.26 -70.56l0 -48.72 -121.81 121.81 0 48.72 121.81 -121.81zm134.04 -58.93l-121.81 -121.81 0 48.72 121.81 121.81 0 -48.72zm-134.04 -73.09l0 -48.72 -121.81 121.81 0 48.72 121.81 -121.81zm0 66.01l0 -48.72 -121.81 121.81 0 48.72 121.81 -121.81z"/>
 </g>
</svg>
