<?xml version="1.0" encoding="UTF-8"?>
<!DOCTYPE svg PUBLIC "-//W3C//DTD SVG 1.1//EN" "http://www.w3.org/Graphics/SVG/1.1/DTD/svg11.dtd">
<!-- Creator: CorelDRAW -->
<svg xmlns="http://www.w3.org/2000/svg" xml:space="preserve" width="261.316mm" height="324.491mm" version="1.1" style="shape-rendering:geometricPrecision; text-rendering:geometricPrecision; image-rendering:optimizeQuality; fill-rule:evenodd; clip-rule:evenodd"
viewBox="0 0 8453.8 10497.56"
 xmlns:xlink="http://www.w3.org/1999/xlink"
 xmlns:xodm="http://www.corel.com/coreldraw/odm/2003">
 <defs>
  <style type="text/css">
   <![CDATA[
    .fil1 {fill:none}
    .fil0 {fill:#FEFEFE}
   ]]>
  </style>
   <clipPath id="id0">
    <path d="M-0 0l8453.8 0 0 10497.56 -8453.8 0 0 -10497.56z"/>
   </clipPath>
    <clipPath id="id1">
     <path d="M-0 0l8250.97 0 0 10497.56 -8250.97 0 0 -10497.56z"/>
    </clipPath>
    <clipPath id="id2">
     <path d="M-0 0l8453.8 0 0 10497.56 -8453.8 0 0 -10497.56z"/>
    </clipPath>
    <clipPath id="id3">
     <path d="M8453.8 7.32l0 10482.92 -8453.8 0 0 -10482.92 8453.8 0z"/>
    </clipPath>
    <clipPath id="id4">
     <path d="M-0 0l8453.8 0 0 10497.56 -8453.8 0 0 -10497.56z"/>
    </clipPath>
    <clipPath id="id5">
     <path d="M-0 0l8453.8 0 0 10497.56 -8453.8 0 0 -10497.56z"/>
    </clipPath>
    <clipPath id="id6">
     <path d="M-0 0l8453.8 0 0 10497.56 -8453.8 0 0 -10497.56z"/>
    </clipPath>
 </defs>
 <g id="Layer_x0020_1">
  <metadata id="CorelCorpID_0Corel-Layer"/>
  <polygon class="fil0" points="-0,0 8453.8,0 8453.8,10497.56 -0,10497.56 "/>
  <g style="clip-path:url(#id0)">
   <g id="_2178315044640">
   </g>
   <g style="clip-path:url(#id1)">
    <image x="-0" y="-0" width="7164.52" height="10540.9" xlink:href="img 11_Images\img 11_ImgID1.png"/>
   </g>
   <g style="clip-path:url(#id2)">
   </g>
   <g style="clip-path:url(#id3)">
    <image x="-1014.56" y="7.32" width="10482.92" height="10482.92" xlink:href="img 11_Images\img 11_ImgID2.png"/>
   </g>
   <g style="clip-path:url(#id4)">
   </g>
   <g style="clip-path:url(#id5)">
    <image x="-4829.18" y="-3940.96" width="14438.52" height="14438.52" xlink:href="img 11_Images\img 11_ImgID3.png"/>
   </g>
   <g style="clip-path:url(#id6)">
   </g>
  </g>
  <polygon class="fil1" points="-0,0 8453.8,0 8453.8,10497.56 -0,10497.56 "/>
 </g>
</svg>
