<?xml version="1.0" encoding="UTF-8"?>
<!DOCTYPE svg PUBLIC "-//W3C//DTD SVG 1.1//EN" "http://www.w3.org/Graphics/SVG/1.1/DTD/svg11.dtd">
<!-- Creator: CorelDRAW -->
<svg xmlns="http://www.w3.org/2000/svg" xml:space="preserve" width="261.316mm" height="324.491mm" version="1.1" style="shape-rendering:geometricPrecision; text-rendering:geometricPrecision; image-rendering:optimizeQuality; fill-rule:evenodd; clip-rule:evenodd"
viewBox="0 0 8453.8 10497.56"
 xmlns:xlink="http://www.w3.org/1999/xlink"
 xmlns:xodm="http://www.corel.com/coreldraw/odm/2003">
 <defs>
  <style type="text/css">
   <![CDATA[
    .fil1 {fill:none}
    .fil0 {fill:#FEFEFE}
   ]]>
  </style>
   <clipPath id="id0">
    <path d="M-0 0l8453.8 0 0 10497.56 -8453.8 0 0 -10497.56z"/>
   </clipPath>
    <clipPath id="id1">
     <path d="M-0 0l8453.8 0 0 10497.56 -8453.8 0 0 -10497.56z"/>
    </clipPath>
    <clipPath id="id2">
     <path d="M-0 0l8453.8 0 0 10497.56 -8453.8 0 0 -10497.56z"/>
    </clipPath>
    <clipPath id="id3">
     <path d="M-0 0l8453.8 0 0 10497.56 -8453.8 0 0 -10497.56z"/>
    </clipPath>
    <clipPath id="id4">
     <path d="M-0 0l8453.8 0 0 10497.56 -8453.8 0 0 -10497.56z"/>
    </clipPath>
 </defs>
 <g id="Layer_x0020_1">
  <metadata id="CorelCorpID_0Corel-Layer"/>
  <polygon class="fil0" points="-0,0 8453.8,0 8453.8,10497.56 -0,10497.56 "/>
  <g style="clip-path:url(#id0)">
   <g id="_2178341591392">
   </g>
   <g style="clip-path:url(#id1)">
    <image x="-5260.09" y="-23.69" width="18581.51" height="11901.69" xlink:href="img 12_Images\img 12_ImgID1.png"/>
   </g>
   <g style="clip-path:url(#id2)">
   </g>
   <g style="clip-path:url(#id3)">
    <image x="-1424.59" y="-402.71" width="11302.98" height="11302.98" xlink:href="img 12_Images\img 12_ImgID2.png"/>
   </g>
   <g style="clip-path:url(#id4)">
   </g>
  </g>
  <polygon class="fil1" points="-0,0 8453.8,0 8453.8,10497.56 -0,10497.56 "/>
 </g>
</svg>
